<?xml version="1.0" standalone="no"?>
<!DOCTYPE svg PUBLIC "-//W3C//DTD SVG 20010904//EN"
 "http://www.w3.org/TR/2001/REC-SVG-20010904/DTD/svg10.dtd">
<svg version="1.0" xmlns="http://www.w3.org/2000/svg"
 width="1302.000000pt" height="1302.000000pt" viewBox="0 0 1302.000000 1302.000000"
 preserveAspectRatio="xMidYMid meet">

<g transform="translate(0.000000,1302.000000) scale(0.100000,-0.100000)"
fill="#000000" stroke="none">
<path d="M0 6510 l0 -6510 6510 0 6510 0 0 6510 0 6510 -6510 0 -6510 0 0
-6510z m7319 1072 c386 -613 705 -1121 708 -1130 5 -12 2 -14 -11 -9 -10 4
-170 7 -356 7 l-338 0 -341 553 -340 553 -61 -4 c-80 -6 -137 16 -188 72 -81
88 -83 211 -4 298 74 82 176 101 273 50 78 -41 112 -94 117 -183 4 -60 1 -76
-23 -123 l-27 -54 327 -527 c181 -290 333 -529 339 -531 6 -2 108 -3 227 -2
l215 3 -210 331 c-116 183 -413 651 -661 1042 -341 539 -453 708 -462 699 -6
-7 -208 -322 -448 -702 -241 -379 -534 -841 -651 -1027 -118 -185 -214 -339
-214 -342 0 -3 100 -6 223 -6 l222 0 181 288 c100 158 184 292 187 298 4 6 -3
34 -15 61 -31 73 -20 132 35 189 91 94 235 75 294 -39 20 -39 20 -125 -1 -165
-33 -63 -123 -111 -184 -97 -26 5 -35 -7 -227 -314 l-200 -320 -330 -1 c-181
-1 -343 -3 -358 -5 -22 -3 -27 0 -23 11 3 9 72 120 152 247 81 128 417 660
747 1182 330 523 604 956 610 963 7 9 23 -10 61 -70 29 -46 368 -584 755
-1196z m-727 -604 c76 -22 138 -126 123 -201 -4 -18 -15 -47 -26 -64 l-18 -33
69 -112 c39 -62 70 -115 70 -118 0 -5 -120 -4 -124 2 -2 2 -26 42 -56 89 l-53
85 -47 1 c-80 1 -148 53 -170 131 -14 51 -12 71 9 117 43 94 126 132 223 103z
m-2692 -1266 c0 -451 1 -456 45 -464 16 -3 22 -15 29 -61 4 -32 5 -61 1 -65
-3 -4 -37 -7 -73 -7 -53 0 -73 5 -98 22 -63 45 -64 55 -64 553 l0 450 80 0 80
0 0 -428z m1188 234 c-3 -180 -2 -193 14 -185 9 5 20 14 23 19 4 6 30 23 58
37 43 23 65 28 128 28 65 0 81 -4 116 -27 26 -17 49 -45 64 -75 23 -47 24 -57
27 -330 l3 -283 -80 0 -80 0 -3 254 c-3 240 -4 256 -24 283 -42 56 -118 54
-202 -8 l-42 -31 0 -249 0 -249 -85 0 -85 0 0 505 0 505 86 0 86 0 -4 -194z
m3994 -123 l3 -317 129 162 130 162 89 0 c84 0 89 -1 76 -17 -8 -10 -60 -73
-116 -140 -57 -67 -103 -124 -103 -127 0 -2 55 -91 123 -198 68 -106 127 -199
131 -205 5 -10 -13 -13 -82 -13 l-90 0 -89 150 c-48 82 -90 150 -93 149 -3 0
-29 -28 -57 -62 l-53 -62 0 -87 0 -88 -80 0 -80 0 0 505 0 505 80 0 80 0 2
-317z m-5707 135 c20 -62 88 -271 151 -463 63 -193 114 -354 114 -358 0 -4
-39 -6 -87 -5 l-86 3 -35 123 -35 122 -157 0 -158 0 -20 -67 c-11 -38 -28 -94
-37 -125 l-16 -58 -86 0 c-65 0 -84 3 -80 13 3 7 72 219 153 470 l149 457 97
0 97 0 36 -112z m3214 -140 c23 -139 53 -316 66 -393 12 -77 23 -137 24 -134
17 98 64 311 113 516 l63 263 72 0 71 0 66 -267 c35 -148 75 -321 87 -385 13
-65 26 -115 30 -110 3 4 14 61 23 127 15 108 88 539 102 608 6 27 6 27 85 27
77 0 79 -1 74 -22 -3 -13 -39 -201 -80 -418 -42 -217 -80 -419 -86 -447 l-10
-53 -105 0 c-57 0 -104 2 -104 5 0 3 -21 92 -46 198 -25 105 -61 264 -79 352
l-33 160 -11 -60 c-12 -57 -42 -194 -114 -512 l-32 -143 -101 0 c-97 0 -102 1
-107 23 -13 52 -177 890 -177 903 0 11 18 14 83 14 l83 0 43 -252z m-2007 16
c130 -44 207 -223 179 -413 -28 -188 -139 -305 -291 -306 -55 0 -74 5 -122 33
l-58 32 0 -165 0 -165 -80 0 -80 0 0 490 0 490 64 0 c67 0 76 -6 76 -51 0 -25
2 -24 53 11 83 60 171 74 259 44z m1561 -17 c25 -15 56 -41 68 -58 44 -62 51
-110 56 -376 l5 -253 -71 0 -71 0 -6 39 -6 38 -50 -33 c-49 -33 -132 -64 -173
-64 -12 0 -44 7 -71 15 -84 25 -134 96 -134 190 0 73 18 113 70 158 49 41 131
72 252 93 45 8 84 17 87 19 3 3 -1 24 -9 47 -37 104 -140 110 -312 20 -7 -3
-58 90 -58 106 0 12 112 62 175 79 28 7 84 11 126 9 61 -2 85 -8 122 -29z
m1890 -1 c67 -32 120 -89 156 -165 23 -50 26 -68 26 -171 0 -98 -3 -122 -23
-164 -52 -114 -153 -188 -274 -202 -83 -10 -181 22 -245 80 -145 131 -159 399
-28 545 73 80 152 113 262 107 52 -2 86 -10 126 -30z m765 28 c15 -4 21 -12
18 -23 -3 -9 -10 -41 -15 -71 l-11 -55 -58 3 c-71 4 -110 -18 -152 -85 l-30
-47 0 -218 0 -218 -80 0 -80 0 0 350 0 350 64 0 c72 0 76 -4 76 -78 l0 -47 47
54 c67 77 143 106 221 85z m1239 -29 c88 -39 92 -46 52 -97 -18 -24 -34 -45
-36 -47 -2 -2 -26 8 -54 24 -98 53 -209 29 -209 -45 0 -37 34 -65 113 -95 152
-57 205 -98 228 -176 16 -50 -1 -129 -36 -175 -74 -97 -263 -119 -410 -47 -93
45 -93 44 -48 106 l39 54 29 -23 c73 -58 218 -72 257 -24 42 52 12 104 -82
144 -125 53 -149 65 -182 95 -122 106 -63 288 107 332 60 16 166 4 232 -26z
m-5453 -1109 c41 -17 52 -32 36 -51 -10 -12 -16 -11 -43 6 -52 31 -102 24
-155 -24 -53 -49 -52 -166 4 -226 30 -33 37 -36 87 -36 40 0 61 5 76 19 17 15
23 16 36 6 23 -19 19 -26 -28 -49 -77 -37 -164 -23 -219 35 -36 38 -48 74 -48
139 0 65 12 101 48 139 51 54 136 71 206 42z m466 -9 c59 -31 90 -89 90 -168
0 -69 -12 -104 -48 -143 -82 -87 -234 -70 -289 34 -32 60 -32 150 0 211 43 83
157 114 247 66z m1009 2 c40 -17 43 -21 30 -35 -14 -13 -19 -13 -52 1 -73 30
-137 10 -137 -44 0 -30 26 -47 124 -82 59 -21 86 -54 86 -104 0 -66 -55 -105
-148 -105 -46 0 -123 28 -136 48 -3 5 1 16 10 23 13 10 21 9 47 -6 47 -28 130
-27 159 2 18 19 20 27 12 50 -7 22 -25 34 -89 60 -87 36 -125 70 -125 109 0
88 114 131 219 83z m2583 0 c37 -19 39 -22 25 -36 -14 -14 -19 -14 -50 1 -66
31 -142 11 -177 -46 -29 -48 -28 -143 3 -189 30 -44 90 -67 144 -53 37 9 38
10 41 62 l3 52 -45 0 c-39 0 -46 3 -46 20 0 18 7 20 70 20 l70 0 0 -84 0 -84
-40 -16 c-73 -29 -171 -15 -224 32 -69 61 -73 212 -8 286 49 54 162 72 234 35z
m-3175 -106 c42 -65 87 -136 99 -157 l22 -39 -5 156 -6 157 31 0 32 0 0 -185
0 -185 -32 0 c-31 0 -38 7 -128 149 l-95 149 -3 -149 -3 -149 -24 0 -25 0 0
185 0 185 30 0 c28 0 37 -10 107 -117z m885 -27 c3 -124 6 -147 22 -165 25
-27 78 -37 117 -20 48 19 59 58 59 204 l0 125 25 0 25 0 0 -132 c0 -158 -15
-204 -73 -231 -51 -25 -126 -22 -168 6 -54 36 -63 66 -67 220 l-4 137 30 0 31
0 3 -144z m518 -21 l0 -165 90 0 c83 0 90 -1 90 -20 0 -19 -7 -20 -120 -20
l-120 0 0 185 0 185 30 0 30 0 0 -165z m550 145 c0 -18 -7 -20 -65 -20 l-65 0
0 -165 0 -165 -25 0 -25 0 0 165 0 165 -65 0 c-58 0 -65 2 -65 20 0 19 7 20
155 20 148 0 155 -1 155 -20z m230 -166 l0 -185 -27 3 -28 3 -3 170 c-1 93 0
175 2 182 3 7 17 13 31 13 l25 0 0 -186z m332 98 c31 -48 75 -116 97 -152 l41
-65 0 153 0 152 25 0 25 0 0 -185 0 -185 -30 0 c-32 0 -50 23 -185 242 l-42
67 5 -155 5 -156 -29 4 -29 3 -2 170 c-1 94 0 176 3 183 2 6 16 12 31 12 24 0
36 -13 85 -88z"/>
<path d="M6493 7880 c-74 -45 -83 -139 -19 -197 41 -38 95 -44 146 -18 54 28
78 117 46 173 -32 59 -114 79 -173 42z"/>
<path d="M6115 7361 c-55 -23 -81 -112 -45 -156 27 -32 77 -47 116 -35 43 15
64 44 64 93 0 51 -15 76 -55 93 -38 16 -51 16 -80 5z"/>
<path d="M6491 6898 c-14 -7 -34 -28 -44 -46 -38 -65 10 -144 87 -144 47 0 75
18 92 59 17 40 7 89 -25 117 -25 23 -81 30 -110 14z"/>
<path d="M3216 5857 c-15 -58 -66 -242 -92 -329 -5 -16 5 -18 116 -18 96 0
121 3 117 13 -6 16 -69 238 -93 327 -9 36 -20 68 -23 72 -4 4 -15 -25 -25 -65z"/>
<path d="M4344 5678 l-49 -33 -3 -172 -2 -171 55 -27 c143 -71 248 20 249 215
0 103 -14 149 -60 190 -29 25 -43 30 -88 30 -44 0 -63 -6 -102 -32z"/>
<path d="M5990 5456 c-98 -28 -140 -64 -140 -124 0 -47 14 -69 56 -82 47 -16
91 -6 148 31 l46 31 0 79 0 79 -32 -1 c-18 0 -53 -6 -78 -13z"/>
<path d="M7852 5709 c-93 -19 -146 -150 -121 -293 19 -111 72 -166 159 -166
101 0 151 69 158 217 4 82 2 97 -21 146 -36 78 -98 113 -175 96z"/>
<path d="M4906 4665 c-37 -20 -53 -41 -66 -88 -17 -59 -3 -124 36 -166 29 -32
38 -36 83 -36 41 0 55 5 80 29 59 57 60 185 2 240 -36 34 -94 43 -135 21z"/>
</g>
</svg>
